{
  "accessors": [
    {
      "bufferView": 2,
      "componentType": 5126,
      "count": 41771,
      "max": [
        116.0,
        119.0,
        109.0
      ],
      "min": [
        0.0,
        0.0,
        0.0
      ],
      "type": "VEC3"
    },
    {
      "bufferView": 2,
      "byteOffset": 501252,
      "componentType": 5126,
      "count": 41771,
      "max": [
        1.0,
        1.0,
        1.0
      ],
      "min": [
        -1.0,
        -1.0,
        -1.0
      ],
      "type": "VEC3"
    },
    {
      "bufferView": 1,
      "componentType": 5126,
      "count": 41771,
      "max": [
        0.8496090173721313,
        0.5
      ],
      "min": [
        0.27148398756980896,
        0.5
      ],
      "type": "VEC2"
    },
    {
      "bufferView": 0,
      "componentType": 5125,
      "count": 79494,
      "type": "SCALAR"
    }
  ],
  "asset": {
    "extras": {
      "author": "moyicat (https://sketchfab.com/moyicat)",
      "license": "CC-BY-4.0 (http://creativecommons.org/licenses/by/4.0/)",
      "source": "https://sketchfab.com/3d-models/voxel-planet-of-the-little-prince-magicavoxel-8a7cf90ac42c4ef693342404826c06ae",
      "title": "Voxel Planet of the Little Prince / MagicaVoxel"
    },
    "generator": "Sketchfab-12.68.0",
    "version": "2.0"
  },
  "bufferViews": [
    {
      "buffer": 0,
      "byteLength": 317976,
      "name": "floatBufferViews",
      "target": 34963
    },
    {
      "buffer": 0,
      "byteLength": 334168,
      "byteOffset": 317976,
      "byteStride": 8,
      "name": "floatBufferViews",
      "target": 34962
    },
    {
      "buffer": 0,
      "byteLength": 1002504,
      "byteOffset": 652144,
      "byteStride": 12,
      "name": "floatBufferViews",
      "target": 34962
    }
  ],
  "buffers": [
    {
      "byteLength": 1654648,
      "uri": "scene.bin"
    }
  ],
  "images": [
    {
      "uri": "textures/palette_baseColor.png"
    },
    {
      "uri": "textures/palette_emissive.png"
    }
  ],
  "materials": [
    {
      "alphaMode": "BLEND",
      "emissiveFactor": [
        0.6000000000000001,
        0.6000000000000001,
        0.6000000000000001
      ],
      "emissiveTexture": {
        "index": 1
      },
      "name": "palette",
      "pbrMetallicRoughness": {
        "baseColorTexture": {
          "index": 0
        },
        "metallicFactor": 0.0,
        "roughnessFactor": 0.6
      }
    }
  ],
  "meshes": [
    {
      "name": "Object_0",
      "primitives": [
        {
          "attributes": {
            "NORMAL": 1,
            "POSITION": 0,
            "TEXCOORD_0": 2
          },
          "indices": 3,
          "material": 0,
          "mode": 4
        }
      ]
    }
  ],
  "nodes": [
    {
      "children": [
        1
      ],
      "matrix": [
        0.9088624119758606,
        0.41709601879119873,
        9.261392070829516e-17,
        0.0,
        0.0,
        2.220446049250313e-16,
        -1.0,
        0.0,
        -0.41709601879119873,
        0.9088624119758606,
        2.01807995198391e-16,
        0.0,
        26.114089965820313,
        5.487552642822266,
        1.2184814585807814e-15,
        1.0
      ],
      "name": "Sketchfab_model"
    },
    {
      "children": [
        2
      ],
      "matrix": [
        1.0,
        0.0,
        0.0,
        0.0,
        0.0,
        1.0,
        0.0,
        0.0,
        0.0,
        0.0,
        1.0,
        0.0,
        -57.5,
        -62.5,
        8.0,
        1.0
      ],
      "name": "planet_lava.obj.cleaner.materialmerger.gles"
    },
    {
      "mesh": 0,
      "name": "Object_2"
    }
  ],
  "samplers": [
    {
      "magFilter": 9729,
      "minFilter": 9987,
      "wrapS": 10497,
      "wrapT": 10497
    }
  ],
  "scene": 0,
  "scenes": [
    {
      "name": "Sketchfab_Scene",
      "nodes": [
        0
      ]
    }
  ],
  "textures": [
    {
      "sampler": 0,
      "source": 0
    },
    {
      "sampler": 0,
      "source": 1
    }
  ]
}
